# xmcd CD database file
#
# Track frame offsets:
#	150
#	9745
#	20927
#	33998
#	45924
#	58397
#	72358
#	85164
#	97241
#	107570
#	120298
#	133312
#	144213
#	153428
#	165875
#	179112
#	193192
#
# Disc length: 2710 seconds
#
# Revision: 1
# Processed by: cddbd v1.5.2PL0 Copyright (c) Steve Scherf et al.
# Submitted via: CDex 1.51
#
DISCID=ed0a9411
DTITLE=Little Walter - Hate To See You Go
DYEAR=1900
DGENRE=Blues
TTITLE0=Nobody But You
TTITLE1=My Baby's Sweeter
TTITLE2=Roller Coaster
TTITLE3=As Long As I Have You
TTITLE4=Oh Baby
TTITLE5=Take Me Back
TTITLE6=Everythng's Going To Be Alright
TTITLE7=Mellow Down Easy
TTITLE8=Hate To See You Go
TTITLE9=I Got To Find My Baby
TTITLE10=Everybody Needs Somebody
TTITLE11=Blue Midnight
TTITLE12=I've Had My Fun
TTITLE13=Key To The Highway
TTITLE14=Blue And Lonesome
TTITLE15=I Got To Find My Baby (Alternate)
TTITLE16=I've Had My Fun (Alternate)
EXTD=
EXTT0=
EXTT1=
EXTT2=
EXTT3=
EXTT4=
EXTT5=
EXTT6=
EXTT7=
EXTT8=
EXTT9=
EXTT10=
EXTT11=
EXTT12=
EXTT13=
EXTT14=
EXTT15=
EXTT16=
PLAYORDER=
